<?xml version="1.0" encoding="utf-8"?>
<!-- Generator: Adobe Illustrator 26.1.0, SVG Export Plug-In . SVG Version: 6.00 Build 0)  -->
<svg version="1.1" id="Layer_1" xmlns="http://www.w3.org/2000/svg" xmlns:xlink="http://www.w3.org/1999/xlink" x="0px" y="0px"
	 viewBox="0 0 16 16" enable-background="new 0 0 16 16" xml:space="preserve">
<g>
	<g id="play">
		<g>
			<path fill-rule="evenodd" clip-rule="evenodd" d="M13.8,8.8c0.3-0.2,0.5-0.5,0.5-0.8c0-0.3-0.2-0.6-0.5-0.8l-6-4
				C7.7,3.1,7.5,3,7.3,3c-0.6,0-1,0.5-1,1v8c0,0.6,0.4,1,1,1c0.2,0,0.4-0.1,0.5-0.2"/>
		</g>
	</g>
	<path fill-rule="evenodd" clip-rule="evenodd" d="M3.6,13H2.4c-0.4,0-0.7-0.3-0.7-0.7V3.7C1.7,3.3,2,3,2.4,3h1.2
		C4,3,4.3,3.3,4.3,3.7v8.6C4.3,12.7,4,13,3.6,13z"/>
</g>
</svg>
