<?xml version="1.0" standalone="no"?>
<!DOCTYPE svg PUBLIC "-//W3C//DTD SVG 20010904//EN"
 "http://www.w3.org/TR/2001/REC-SVG-20010904/DTD/svg10.dtd">
<svg version="1.0" xmlns="http://www.w3.org/2000/svg"
 width="573.000000pt" height="573.000000pt" viewBox="0 0 573.000000 573.000000"
 preserveAspectRatio="xMidYMid meet">
<metadata>
Created by potrace 1.14, written by Peter Selinger 2001-2017
</metadata>
<g transform="translate(0.000000,573.000000) scale(0.100000,-0.100000)"
fill="#000000" stroke="none">
<path d="M2810 5537 c-178 -36 -246 -281 -113 -405 116 -107 315 -79 378 54
l17 37 67 -6 c36 -4 75 -8 86 -10 11 -3 40 -8 65 -12 203 -32 508 -139 719
-252 482 -260 883 -698 1098 -1203 88 -206 158 -465 178 -660 3 -30 8 -73 11
-95 2 -22 5 -77 7 -122 l1 -81 36 -4 c19 -1 50 -2 69 0 l34 3 -7 122 c-34 655
-294 1241 -754 1704 -349 351 -791 595 -1275 704 -107 23 -133 28 -264 44 -60
7 -62 9 -77 45 -18 44 -73 102 -119 123 -43 20 -102 25 -157 14z"/>
<path d="M1440 4944 c-209 -138 -423 -329 -565 -505 -33 -41 -66 -80 -73 -87
-16 -18 -153 -225 -186 -282 -23 -40 -118 -227 -121 -240 -1 -3 -7 -18 -14
-35 -133 -314 -202 -645 -205 -985 -2 -271 16 -424 78 -685 21 -85 80 -259
123 -359 33 -78 33 -79 15 -100 -66 -75 -71 -202 -11 -288 103 -147 328 -133
412 25 33 64 30 167 -6 230 -47 80 -134 127 -223 122 -32 -3 -34 -1 -68 80
-32 77 -98 270 -111 326 -18 77 -55 283 -61 339 -4 36 -8 79 -10 95 -5 45 -5
326 0 355 3 14 7 57 10 95 8 93 22 170 51 295 66 284 203 594 373 840 45 66
141 187 177 226 11 12 41 43 66 70 124 131 269 252 436 361 l112 74 -32 54
c-18 30 -36 55 -42 55 -5 0 -62 -34 -125 -76z"/>
<path d="M2797 4904 c-1 -1 -45 -4 -97 -8 -110 -7 -160 -14 -300 -42 -173 -35
-430 -136 -605 -239 -584 -344 -967 -932 -1042 -1600 -15 -130 -6 -546 12
-575 2 -3 6 -24 10 -48 19 -129 91 -355 160 -507 66 -144 189 -339 293 -465
46 -56 217 -228 263 -265 13 -11 45 -36 69 -56 119 -96 343 -225 505 -292 121
-50 286 -98 415 -121 148 -26 200 -30 400 -30 197 1 353 19 508 60 31 9 64 17
72 19 8 2 60 19 115 38 420 148 781 424 1041 797 73 104 89 133 164 286 51
102 129 311 146 387 19 84 53 284 59 342 7 82 8 324 1 375 -3 19 -8 58 -11 85
-11 86 -13 98 -30 180 -42 204 -134 440 -248 635 -26 44 -88 140 -104 160
-106 135 -152 189 -229 265 -199 200 -454 367 -713 469 -103 41 -302 100 -366
110 -22 3 -51 8 -65 10 -61 11 -100 16 -175 21 -85 6 -244 12 -248 9z m106
-244 c-4 -171 -131 -343 -378 -508 -82 -54 -183 -107 -237 -122 -22 -7 -30 -5
-35 5 -6 17 18 47 121 155 138 145 180 208 165 248 -10 28 -41 29 -78 2 -15
-10 -62 -61 -103 -112 -118 -145 -164 -168 -210 -107 -13 17 -39 49 -59 70
-44 47 -81 51 -180 17 -150 -50 -273 -145 -307 -237 -14 -38 6 -116 38 -146
50 -47 121 -36 240 37 57 35 95 41 140 19 42 -19 80 -87 80 -141 -1 -81 -50
-143 -210 -265 -175 -133 -195 -159 -240 -305 -18 -58 -38 -123 -44 -144 -15
-47 -38 -66 -63 -50 -10 6 -35 44 -55 85 -83 167 -193 160 -313 -21 -111 -170
-123 -350 -28 -438 60 -55 186 -90 319 -87 80 2 97 6 165 39 128 62 201 52
344 -49 164 -116 359 -382 349 -477 -25 -245 -25 -524 0 -617 10 -36 26 -81
36 -102 26 -50 104 -129 172 -174 61 -40 63 -42 49 -64 -7 -11 -23 -13 -68 -8
-224 25 -541 166 -718 319 -15 13 -65 74 -112 136 -67 90 -295 371 -348 428
-54 60 -150 186 -189 250 -47 78 -49 122 -10 201 16 32 29 64 30 70 1 7 -22
46 -51 85 -97 134 -178 309 -176 385 1 51 40 228 73 332 160 502 516 915 998
1156 132 66 342 138 465 159 17 3 41 8 55 11 67 13 92 16 180 22 52 3 96 6 97
7 1 1 24 2 50 1 l48 -1 -2 -64z m635 -56 c537 -201 947 -610 1151 -1146 37
-97 82 -264 95 -353 l6 -40 -26 50 c-98 189 -245 335 -368 366 -63 16 -126 6
-149 -22 -18 -22 -18 -23 62 -103 44 -45 89 -92 99 -106 23 -31 62 -115 62
-134 0 -21 -22 -34 -52 -31 -44 5 -160 72 -221 126 -77 68 -133 91 -230 92
-56 1 -100 -27 -105 -65 -5 -38 49 -77 160 -118 246 -90 292 -113 307 -153 16
-42 -34 -92 -203 -205 -96 -64 -155 -123 -186 -189 -19 -40 -24 -65 -24 -143
0 -52 4 -126 9 -165 11 -82 12 -275 2 -360 -15 -136 -59 -256 -107 -300 -17
-15 -36 -20 -84 -20 -92 0 -198 54 -291 149 -82 83 -105 136 -106 241 -3 229
-144 457 -324 524 -31 12 -68 21 -83 21 -46 0 -160 36 -201 63 -76 50 -127
179 -119 299 13 182 185 358 453 464 127 51 157 52 253 15 306 -118 510 -103
461 33 -24 66 -169 193 -245 215 -43 12 -82 -2 -174 -64 -113 -75 -127 -73
-149 20 -14 55 -23 65 -64 65 -43 0 -109 -39 -272 -159 -90 -67 -159 -111
-173 -111 -42 0 -82 29 -107 76 -24 48 0 76 120 136 l106 52 15 56 c21 77 35
110 45 110 18 0 24 2 59 20 39 20 122 89 170 142 49 52 81 113 86 165 8 71 34
118 128 222 93 105 103 127 101 234 -1 37 3 67 7 67 5 0 53 -16 106 -36z"/>
<path d="M4991 1748 c-48 -13 -106 -54 -134 -96 -54 -78 -58 -170 -12 -256
l24 -45 -36 -48 c-255 -340 -636 -635 -1018 -790 -215 -87 -362 -129 -573
-162 -37 -6 -83 -13 -102 -16 -106 -18 -490 -12 -620 9 -122 20 -161 27 -172
31 -7 2 -24 6 -38 9 -137 25 -368 110 -551 201 l-127 64 -31 -59 c-24 -45 -28
-60 -18 -68 24 -19 219 -113 317 -152 173 -69 415 -136 565 -156 28 -3 59 -8
70 -10 43 -9 216 -18 325 -18 425 0 803 91 1183 283 110 55 288 162 347 208
87 67 193 154 229 187 111 104 263 271 321 356 38 55 42 57 110 57 141 -1 242
101 242 243 0 152 -151 267 -301 228z"/>
</g>
</svg>
